<mxfile host="app.diagrams.net" modified="2024-06-07T22:43:52.507Z" agent="Mozilla/5.0 (X11; Ubuntu; Linux x86_64; rv:126.0) Gecko/20100101 Firefox/126.0" etag="YIAKjXOzNW0oao6WCRFz" version="24.5.2" type="device">
  <diagram name="Page-1" id="QQhFZsm5E4Q7UqErK2DK">
    <mxGraphModel dx="1687" dy="876" grid="1" gridSize="10" guides="1" tooltips="1" connect="1" arrows="1" fold="1" page="1" pageScale="1" pageWidth="827" pageHeight="1169" math="0" shadow="0">
      <root>
        <mxCell id="0" />
        <mxCell id="1" parent="0" />
        <mxCell id="VT1UUAzVHUPchzsrK04z-7" value="" style="rounded=1;whiteSpace=wrap;html=1;arcSize=5;" parent="1" vertex="1">
          <mxGeometry x="70" y="110" width="450" height="440" as="geometry" />
        </mxCell>
        <mxCell id="7i_CGMOZc0_IQQxQHQ9Y-15" style="edgeStyle=orthogonalEdgeStyle;rounded=0;orthogonalLoop=1;jettySize=auto;html=1;exitX=0.75;exitY=0;exitDx=0;exitDy=0;entryX=0.75;entryY=1;entryDx=0;entryDy=0;" edge="1" parent="1" source="VT1UUAzVHUPchzsrK04z-1" target="VT1UUAzVHUPchzsrK04z-17">
          <mxGeometry relative="1" as="geometry" />
        </mxCell>
        <mxCell id="VT1UUAzVHUPchzsrK04z-2" value="Dashboard" style="text;html=1;align=center;verticalAlign=middle;whiteSpace=wrap;rounded=0;fontStyle=1;fontColor=#545454;fontSize=13;" parent="1" vertex="1">
          <mxGeometry x="318.86" y="278" width="100" height="30" as="geometry" />
        </mxCell>
        <mxCell id="VT1UUAzVHUPchzsrK04z-8" value="Ground station" style="text;html=1;align=center;verticalAlign=middle;whiteSpace=wrap;rounded=0;fontStyle=1;fontColor=#545454;fontSize=18;" parent="1" vertex="1">
          <mxGeometry x="227.5" y="70" width="135" height="30" as="geometry" />
        </mxCell>
        <mxCell id="VT1UUAzVHUPchzsrK04z-9" value="" style="rounded=1;whiteSpace=wrap;html=1;" parent="1" vertex="1">
          <mxGeometry x="110" y="170" width="160" height="233" as="geometry" />
        </mxCell>
        <mxCell id="VT1UUAzVHUPchzsrK04z-10" value="Mission Generator" style="text;html=1;align=center;verticalAlign=middle;whiteSpace=wrap;rounded=0;fontStyle=1;fontColor=#545454;fontSize=13;" parent="1" vertex="1">
          <mxGeometry x="140" y="130" width="100" height="30" as="geometry" />
        </mxCell>
        <mxCell id="VT1UUAzVHUPchzsrK04z-13" value="mission.py" style="text;html=1;align=center;verticalAlign=middle;whiteSpace=wrap;rounded=0;fontStyle=0;fontSize=14;" parent="1" vertex="1">
          <mxGeometry x="145" y="211.5" width="90" height="30" as="geometry" />
        </mxCell>
        <mxCell id="VT1UUAzVHUPchzsrK04z-14" value="geometry.py" style="text;html=1;align=center;verticalAlign=middle;whiteSpace=wrap;rounded=0;fontStyle=0;fontSize=14;" parent="1" vertex="1">
          <mxGeometry x="145" y="330" width="90" height="30" as="geometry" />
        </mxCell>
        <mxCell id="VT1UUAzVHUPchzsrK04z-17" value="" style="rounded=1;whiteSpace=wrap;html=1;fillColor=#FAFAFA;strokeColor=#A3A3A3;fontColor=#333333;" parent="1" vertex="1">
          <mxGeometry x="310" y="173" width="170" height="90" as="geometry" />
        </mxCell>
        <mxCell id="VT1UUAzVHUPchzsrK04z-19" value="fleetman/gs" style="text;html=1;align=center;verticalAlign=middle;whiteSpace=wrap;rounded=0;fontStyle=1;fontColor=#A3A3A3;fontSize=13;" parent="1" vertex="1">
          <mxGeometry x="345" y="130" width="100" height="30" as="geometry" />
        </mxCell>
        <mxCell id="VT1UUAzVHUPchzsrK04z-22" value="" style="shape=image;verticalLabelPosition=bottom;labelBackgroundColor=default;verticalAlign=top;aspect=fixed;imageAspect=0;image=https://miro.medium.com/v2/resize:fit:700/1*5Ou07zVJEqtbfbG6f0kaSA.png;fillOpacity=30;" parent="1" vertex="1">
          <mxGeometry x="342.5" y="204.5" width="105" height="27" as="geometry" />
        </mxCell>
        <mxCell id="VT1UUAzVHUPchzsrK04z-24" value="" style="endArrow=classic;html=1;rounded=0;entryX=0.01;entryY=0.576;entryDx=0;entryDy=0;entryPerimeter=0;" parent="1" target="VT1UUAzVHUPchzsrK04z-17" edge="1">
          <mxGeometry width="50" height="50" relative="1" as="geometry">
            <mxPoint x="270" y="225" as="sourcePoint" />
            <mxPoint x="440" y="330" as="targetPoint" />
          </mxGeometry>
        </mxCell>
        <mxCell id="VT1UUAzVHUPchzsrK04z-25" value="[HTTP]" style="text;html=1;align=center;verticalAlign=middle;whiteSpace=wrap;rounded=0;fillColor=default;" parent="1" vertex="1">
          <mxGeometry x="240" y="186" width="60" height="30" as="geometry" />
        </mxCell>
        <mxCell id="VT1UUAzVHUPchzsrK04z-26" value="" style="rounded=1;whiteSpace=wrap;html=1;arcSize=5;" parent="1" vertex="1">
          <mxGeometry x="600" y="110" width="540" height="320" as="geometry" />
        </mxCell>
        <mxCell id="VT1UUAzVHUPchzsrK04z-27" value="Drone" style="text;html=1;align=center;verticalAlign=middle;whiteSpace=wrap;rounded=0;fontStyle=1;fontColor=#545454;fontSize=18;" parent="1" vertex="1">
          <mxGeometry x="787.5" y="70" width="135" height="30" as="geometry" />
        </mxCell>
        <mxCell id="7i_CGMOZc0_IQQxQHQ9Y-33" style="edgeStyle=orthogonalEdgeStyle;rounded=0;orthogonalLoop=1;jettySize=auto;html=1;exitX=0.75;exitY=0;exitDx=0;exitDy=0;strokeColor=#A3A3A3;startArrow=classic;startFill=1;" edge="1" parent="1" source="VT1UUAzVHUPchzsrK04z-28">
          <mxGeometry relative="1" as="geometry">
            <mxPoint x="767.8235294117649" y="90" as="targetPoint" />
          </mxGeometry>
        </mxCell>
        <mxCell id="VT1UUAzVHUPchzsrK04z-28" value="" style="rounded=1;whiteSpace=wrap;html=1;fillColor=#FAFAFA;strokeColor=#A3A3A3;fontColor=#333333;" parent="1" vertex="1">
          <mxGeometry x="640" y="173" width="170" height="90" as="geometry" />
        </mxCell>
        <mxCell id="VT1UUAzVHUPchzsrK04z-29" value="fleetman/drone" style="text;html=1;align=center;verticalAlign=middle;whiteSpace=wrap;rounded=0;fontStyle=1;fontColor=#A3A3A3;fontSize=13;" parent="1" vertex="1">
          <mxGeometry x="650" y="132" width="100" height="30" as="geometry" />
        </mxCell>
        <mxCell id="VT1UUAzVHUPchzsrK04z-30" value="" style="shape=image;verticalLabelPosition=bottom;labelBackgroundColor=default;verticalAlign=top;aspect=fixed;imageAspect=0;image=https://upload.wikimedia.org/wikipedia/commons/thumb/1/18/ISO_C%2B%2B_Logo.svg/800px-ISO_C%2B%2B_Logo.svg.png;fillOpacity=30;" parent="1" vertex="1">
          <mxGeometry x="704.09" y="194.5" width="41.82" height="47" as="geometry" />
        </mxCell>
        <mxCell id="VT1UUAzVHUPchzsrK04z-31" value="" style="endArrow=classic;html=1;rounded=0;exitX=1;exitY=0.5;exitDx=0;exitDy=0;entryX=0;entryY=0.5;entryDx=0;entryDy=0;fontColor=#A3A3A3;strokeColor=#82B366;startArrow=classic;startFill=1;" parent="1" source="VT1UUAzVHUPchzsrK04z-17" target="VT1UUAzVHUPchzsrK04z-28" edge="1">
          <mxGeometry width="50" height="50" relative="1" as="geometry">
            <mxPoint x="540" y="260" as="sourcePoint" />
            <mxPoint x="590" y="210" as="targetPoint" />
          </mxGeometry>
        </mxCell>
        <mxCell id="VT1UUAzVHUPchzsrK04z-32" value="[ROS 2]" style="text;html=1;align=center;verticalAlign=middle;whiteSpace=wrap;rounded=0;fillColor=default;fontColor=#82B366;" parent="1" vertex="1">
          <mxGeometry x="530" y="186" width="60" height="30" as="geometry" />
        </mxCell>
        <mxCell id="VT1UUAzVHUPchzsrK04z-39" value="" style="endArrow=none;html=1;rounded=0;exitX=0;exitY=0.5;exitDx=0;exitDy=0;entryX=1;entryY=0.5;entryDx=0;entryDy=0;" parent="1" source="VT1UUAzVHUPchzsrK04z-9" target="VT1UUAzVHUPchzsrK04z-9" edge="1">
          <mxGeometry width="50" height="50" relative="1" as="geometry">
            <mxPoint x="470" y="400" as="sourcePoint" />
            <mxPoint x="520" y="350" as="targetPoint" />
          </mxGeometry>
        </mxCell>
        <mxCell id="VT1UUAzVHUPchzsrK04z-40" value="" style="endArrow=classic;html=1;rounded=0;entryX=1.002;entryY=0.805;entryDx=0;entryDy=0;entryPerimeter=0;exitX=0;exitY=0.5;exitDx=0;exitDy=0;" parent="1" source="VT1UUAzVHUPchzsrK04z-1" target="VT1UUAzVHUPchzsrK04z-9" edge="1">
          <mxGeometry width="50" height="50" relative="1" as="geometry">
            <mxPoint x="280" y="235" as="sourcePoint" />
            <mxPoint x="322" y="235" as="targetPoint" />
          </mxGeometry>
        </mxCell>
        <mxCell id="7i_CGMOZc0_IQQxQHQ9Y-7" style="edgeStyle=orthogonalEdgeStyle;rounded=0;orthogonalLoop=1;jettySize=auto;html=1;entryX=1.012;entryY=0.476;entryDx=0;entryDy=0;strokeColor=#6C8EBF;dashed=1;entryPerimeter=0;" edge="1" parent="1" target="7i_CGMOZc0_IQQxQHQ9Y-1">
          <mxGeometry relative="1" as="geometry">
            <mxPoint x="1160" y="218" as="sourcePoint" />
            <Array as="points">
              <mxPoint x="1160" y="218" />
              <mxPoint x="1160" y="356" />
            </Array>
          </mxGeometry>
        </mxCell>
        <mxCell id="VT1UUAzVHUPchzsrK04z-41" value="" style="rounded=1;whiteSpace=wrap;html=1;" parent="1" vertex="1">
          <mxGeometry x="890" y="173" width="200" height="90" as="geometry" />
        </mxCell>
        <mxCell id="VT1UUAzVHUPchzsrK04z-42" value="" style="endArrow=classic;html=1;rounded=0;entryX=0;entryY=0.5;entryDx=0;entryDy=0;exitX=1;exitY=0.5;exitDx=0;exitDy=0;" parent="1" source="VT1UUAzVHUPchzsrK04z-28" target="VT1UUAzVHUPchzsrK04z-41" edge="1">
          <mxGeometry width="50" height="50" relative="1" as="geometry">
            <mxPoint x="280" y="235" as="sourcePoint" />
            <mxPoint x="322" y="235" as="targetPoint" />
          </mxGeometry>
        </mxCell>
        <mxCell id="VT1UUAzVHUPchzsrK04z-43" value="Telemetry" style="text;html=1;align=center;verticalAlign=middle;whiteSpace=wrap;rounded=0;fontStyle=1;fontColor=#545454;fontSize=13;" parent="1" vertex="1">
          <mxGeometry x="920" y="130" width="100" height="30" as="geometry" />
        </mxCell>
        <mxCell id="VT1UUAzVHUPchzsrK04z-45" value="[ROS 2]" style="text;html=1;align=center;verticalAlign=middle;whiteSpace=wrap;rounded=0;fillColor=default;fontColor=#000000;" parent="1" vertex="1">
          <mxGeometry x="820" y="179.5" width="60" height="30" as="geometry" />
        </mxCell>
        <mxCell id="VT1UUAzVHUPchzsrK04z-48" value="" style="endArrow=none;html=1;rounded=0;entryX=0.5;entryY=0;entryDx=0;entryDy=0;exitX=0.5;exitY=1;exitDx=0;exitDy=0;" parent="1" edge="1">
          <mxGeometry width="50" height="50" relative="1" as="geometry">
            <mxPoint x="1060" y="263" as="sourcePoint" />
            <mxPoint x="1060" y="173" as="targetPoint" />
          </mxGeometry>
        </mxCell>
        <mxCell id="VT1UUAzVHUPchzsrK04z-49" value="telem.py" style="text;html=1;align=center;verticalAlign=middle;whiteSpace=wrap;rounded=0;fontStyle=0;fontSize=14;" parent="1" vertex="1">
          <mxGeometry x="890" y="203" width="170" height="30" as="geometry" />
        </mxCell>
        <mxCell id="VT1UUAzVHUPchzsrK04z-44" value="" style="shape=image;verticalLabelPosition=bottom;labelBackgroundColor=default;verticalAlign=top;aspect=fixed;imageAspect=0;image=https://www.svgrepo.com/show/376344/python.svg;" parent="1" vertex="1">
          <mxGeometry x="954" y="144" width="72" height="72" as="geometry" />
        </mxCell>
        <mxCell id="VT1UUAzVHUPchzsrK04z-58" value="Avoidance" style="text;html=1;align=center;verticalAlign=middle;whiteSpace=wrap;rounded=0;fontStyle=1;fontColor=#545454;fontSize=13;" parent="1" vertex="1">
          <mxGeometry x="900" y="276" width="100" height="30" as="geometry" />
        </mxCell>
        <mxCell id="VT1UUAzVHUPchzsrK04z-62" value="" style="rounded=1;whiteSpace=wrap;html=1;" parent="1" vertex="1">
          <mxGeometry x="640" y="313" width="170" height="90" as="geometry" />
        </mxCell>
        <mxCell id="VT1UUAzVHUPchzsrK04z-65" value="" style="shape=image;verticalLabelPosition=bottom;labelBackgroundColor=default;verticalAlign=top;aspect=fixed;imageAspect=0;image=https://cdn.analyticsvidhya.com/wp-content/uploads/2018/12/yologo_2.png;" parent="1" vertex="1">
          <mxGeometry x="710.84" y="335.97" width="64.16" height="34.06" as="geometry" />
        </mxCell>
        <mxCell id="VT1UUAzVHUPchzsrK04z-69" value="" style="endArrow=classic;html=1;rounded=0;entryX=1;entryY=0.25;entryDx=0;entryDy=0;strokeColor=#6C8EBF;" parent="1" edge="1">
          <mxGeometry width="50" height="50" relative="1" as="geometry">
            <mxPoint x="888" y="313" as="sourcePoint" />
            <mxPoint x="480" y="323.5" as="targetPoint" />
            <Array as="points">
              <mxPoint x="888" y="278" />
              <mxPoint x="560" y="278" />
              <mxPoint x="560" y="324" />
            </Array>
          </mxGeometry>
        </mxCell>
        <mxCell id="VT1UUAzVHUPchzsrK04z-63" value="Detection" style="text;html=1;align=center;verticalAlign=middle;whiteSpace=wrap;rounded=0;fontStyle=1;fontColor=#545454;fontSize=13;fillColor=default;" parent="1" vertex="1">
          <mxGeometry x="699.08" y="276" width="100" height="30" as="geometry" />
        </mxCell>
        <mxCell id="VT1UUAzVHUPchzsrK04z-70" value="[HTTP]" style="text;html=1;align=center;verticalAlign=middle;whiteSpace=wrap;rounded=0;fillColor=default;fontColor=#6C8EBF;" parent="1" vertex="1">
          <mxGeometry x="534.08" y="239.5" width="60" height="26" as="geometry" />
        </mxCell>
        <mxCell id="VT1UUAzVHUPchzsrK04z-72" value="" style="rounded=1;whiteSpace=wrap;html=1;fontColor=#000000;strokeColor=#000000;" parent="1" vertex="1">
          <mxGeometry x="235" y="435" width="120" height="68" as="geometry" />
        </mxCell>
        <mxCell id="VT1UUAzVHUPchzsrK04z-77" value="Broker" style="text;html=1;align=center;verticalAlign=middle;whiteSpace=wrap;rounded=0;fontStyle=1;fontColor=#545454;fontSize=13;rotation=0;" parent="1" vertex="1">
          <mxGeometry x="245" y="505" width="100" height="30" as="geometry" />
        </mxCell>
        <mxCell id="VT1UUAzVHUPchzsrK04z-79" value="&lt;b style=&quot;font-size: 15px;&quot;&gt;Note:&lt;/b&gt; The software modules that look &lt;span style=&quot;font-size: 15px;&quot;&gt;&lt;font color=&quot;#9e9e9e&quot; style=&quot;font-size: 15px;&quot;&gt;&lt;i&gt;faded&lt;/i&gt;&lt;/font&gt;&lt;/span&gt; already existed and are unchanged. They were simply integrated and not developed in this project" style="text;html=1;align=left;verticalAlign=middle;whiteSpace=wrap;rounded=0;fontSize=15;fontColor=#5E5E5E;" parent="1" vertex="1">
          <mxGeometry x="77" y="570" width="440" height="60" as="geometry" />
        </mxCell>
        <mxCell id="4eCYIkDmRplkQpLC0vw9-2" value="" style="shape=image;verticalLabelPosition=bottom;labelBackgroundColor=default;verticalAlign=top;aspect=fixed;imageAspect=0;image=https://projects.eclipse.org/sites/default/files/mosquitto-200px.png;" parent="1" vertex="1">
          <mxGeometry x="271.14999999999975" y="445.5" width="47.71" height="47" as="geometry" />
        </mxCell>
        <mxCell id="xipW_wQAXYqAmelbau7Z-6" value="/telem/&amp;lt;drone&amp;gt;" style="text;html=1;align=left;verticalAlign=middle;whiteSpace=wrap;rounded=0;fontSize=12;fillColor=default;fontColor=#4D4D4D;" parent="1" vertex="1">
          <mxGeometry x="1100" y="194.5" width="90" height="18" as="geometry" />
        </mxCell>
        <mxCell id="xipW_wQAXYqAmelbau7Z-7" value="/counter" style="text;html=1;align=center;verticalAlign=middle;whiteSpace=wrap;rounded=0;fontSize=12;fontColor=#4D4D4D;fillColor=default;" parent="1" vertex="1">
          <mxGeometry x="574" y="383.5" width="60" height="30" as="geometry" />
        </mxCell>
        <mxCell id="xipW_wQAXYqAmelbau7Z-8" value="/telem/&amp;lt;drone&amp;gt;" style="text;html=1;align=center;verticalAlign=middle;whiteSpace=wrap;rounded=0;fontSize=12;fontColor=#4D4D4D;fillColor=default;" parent="1" vertex="1">
          <mxGeometry x="948" y="407.74" width="84" height="15" as="geometry" />
        </mxCell>
        <mxCell id="VT1UUAzVHUPchzsrK04z-47" value="[MQTT]" style="text;html=1;align=center;verticalAlign=middle;whiteSpace=wrap;rounded=0;fillColor=default;fontColor=#6C8EBF;strokeColor=none;" parent="1" vertex="1">
          <mxGeometry x="570" y="438" width="60" height="30" as="geometry" />
        </mxCell>
        <mxCell id="VT1UUAzVHUPchzsrK04z-57" value="[MQTT]" style="text;html=1;align=center;verticalAlign=middle;whiteSpace=wrap;rounded=0;fillColor=default;fontColor=#000000;strokeColor=none;" parent="1" vertex="1">
          <mxGeometry x="173" y="454" width="60" height="30" as="geometry" />
        </mxCell>
        <mxCell id="WSlOZcIOhxCBMg01aReG-5" style="edgeStyle=orthogonalEdgeStyle;rounded=0;orthogonalLoop=1;jettySize=auto;html=1;startArrow=classic;startFill=1;endArrow=none;endFill=0;strokeColor=#6C8EBF;exitX=1;exitY=0.5;exitDx=0;exitDy=0;" parent="1" source="VT1UUAzVHUPchzsrK04z-72" edge="1">
          <mxGeometry relative="1" as="geometry">
            <mxPoint x="640" y="380" as="targetPoint" />
            <mxPoint x="355" y="452" as="sourcePoint" />
            <Array as="points">
              <mxPoint x="560" y="469" />
              <mxPoint x="560" y="380" />
            </Array>
          </mxGeometry>
        </mxCell>
        <mxCell id="851pt-TjLN5RaKVyCZTs-2" value="&lt;div style=&quot;&quot;&gt;&lt;font style=&quot;font-size: 20px;&quot;&gt;ITS-G5&lt;/font&gt;&lt;/div&gt;" style="text;html=1;align=center;verticalAlign=middle;whiteSpace=wrap;rounded=0;fontStyle=1;fontSize=15;fontColor=#82B366;" parent="1" vertex="1">
          <mxGeometry x="599.86" y="492.5" width="105" height="30" as="geometry" />
        </mxCell>
        <mxCell id="851pt-TjLN5RaKVyCZTs-3" value="Wi-Fi" style="text;html=1;align=center;verticalAlign=middle;whiteSpace=wrap;rounded=0;fontStyle=1;fontSize=20;fontColor=#6C8EBF;" parent="1" vertex="1">
          <mxGeometry x="594.08" y="532.5" width="105" height="30" as="geometry" />
        </mxCell>
        <mxCell id="851pt-TjLN5RaKVyCZTs-4" value="" style="endArrow=none;html=1;rounded=0;exitX=1;exitY=0.5;exitDx=0;exitDy=0;strokeWidth=2;fillColor=#fff2cc;strokeColor=#82B366;startArrow=none;startFill=0;endFill=0;" parent="1" edge="1">
          <mxGeometry width="50" height="50" relative="1" as="geometry">
            <mxPoint x="699.08" y="507" as="sourcePoint" />
            <mxPoint x="757.08" y="507.5" as="targetPoint" />
          </mxGeometry>
        </mxCell>
        <mxCell id="851pt-TjLN5RaKVyCZTs-5" value="" style="endArrow=none;html=1;rounded=0;exitX=1;exitY=0.5;exitDx=0;exitDy=0;strokeWidth=2;fillColor=#fff2cc;strokeColor=#6C8EBF;startArrow=none;startFill=0;endFill=0;" parent="1" edge="1">
          <mxGeometry width="50" height="50" relative="1" as="geometry">
            <mxPoint x="699.08" y="547" as="sourcePoint" />
            <mxPoint x="757.08" y="547.5" as="targetPoint" />
          </mxGeometry>
        </mxCell>
        <mxCell id="7i_CGMOZc0_IQQxQHQ9Y-8" style="edgeStyle=orthogonalEdgeStyle;rounded=0;orthogonalLoop=1;jettySize=auto;html=1;exitX=0.75;exitY=1;exitDx=0;exitDy=0;strokeColor=#6C8EBF;dashed=1;endArrow=none;endFill=0;" edge="1" parent="1" source="7i_CGMOZc0_IQQxQHQ9Y-1">
          <mxGeometry relative="1" as="geometry">
            <mxPoint x="940" y="450" as="targetPoint" />
            <Array as="points">
              <mxPoint x="1080" y="450" />
              <mxPoint x="940" y="450" />
            </Array>
          </mxGeometry>
        </mxCell>
        <mxCell id="7i_CGMOZc0_IQQxQHQ9Y-1" value="" style="rounded=1;whiteSpace=wrap;html=1;fontColor=#000000;strokeColor=#000000;dashed=1;" vertex="1" parent="1">
          <mxGeometry x="990" y="324" width="120" height="68" as="geometry" />
        </mxCell>
        <mxCell id="7i_CGMOZc0_IQQxQHQ9Y-2" value="Broker" style="text;html=1;align=center;verticalAlign=middle;whiteSpace=wrap;rounded=0;fontStyle=1;fontColor=#545454;fontSize=13;rotation=0;" vertex="1" parent="1">
          <mxGeometry x="1000" y="294" width="100" height="30" as="geometry" />
        </mxCell>
        <mxCell id="7i_CGMOZc0_IQQxQHQ9Y-3" value="" style="shape=image;verticalLabelPosition=bottom;labelBackgroundColor=default;verticalAlign=top;aspect=fixed;imageAspect=0;image=https://projects.eclipse.org/sites/default/files/mosquitto-200px.png;" vertex="1" parent="1">
          <mxGeometry x="1026.1499999999996" y="334.5" width="47.71" height="47" as="geometry" />
        </mxCell>
        <mxCell id="7i_CGMOZc0_IQQxQHQ9Y-16" value="" style="rounded=1;whiteSpace=wrap;html=1;" vertex="1" parent="1">
          <mxGeometry x="437" y="373" width="55.46" height="70" as="geometry" />
        </mxCell>
        <mxCell id="7i_CGMOZc0_IQQxQHQ9Y-9" value="[MQTT]" style="text;html=1;align=center;verticalAlign=middle;whiteSpace=wrap;rounded=0;fillColor=default;fontColor=#6C8EBF;strokeColor=none;" vertex="1" parent="1">
          <mxGeometry x="1114" y="365" width="60" height="26" as="geometry" />
        </mxCell>
        <mxCell id="7i_CGMOZc0_IQQxQHQ9Y-10" value="[MQTT]" style="text;html=1;align=center;verticalAlign=middle;whiteSpace=wrap;rounded=0;fillColor=default;fontColor=#6C8EBF;strokeColor=none;" vertex="1" parent="1">
          <mxGeometry x="980" y="454" width="60" height="26" as="geometry" />
        </mxCell>
        <mxCell id="VT1UUAzVHUPchzsrK04z-1" value="" style="rounded=1;whiteSpace=wrap;html=1;" parent="1" vertex="1">
          <mxGeometry x="310" y="313" width="170" height="90" as="geometry" />
        </mxCell>
        <mxCell id="VT1UUAzVHUPchzsrK04z-20" value="" style="shape=image;verticalLabelPosition=bottom;labelBackgroundColor=default;verticalAlign=top;aspect=fixed;imageAspect=0;image=https://miro.medium.com/v2/resize:fit:438/1*dQvABiWzbE28OTPYjzElKw.png;" parent="1" vertex="1">
          <mxGeometry x="357.46000000000004" y="330" width="75.08" height="42" as="geometry" />
        </mxCell>
        <mxCell id="7i_CGMOZc0_IQQxQHQ9Y-17" value="" style="shape=image;verticalLabelPosition=bottom;labelBackgroundColor=default;verticalAlign=top;aspect=fixed;imageAspect=0;image=https://static-00.iconduck.com/assets.00/mysql-original-wordmark-icon-2048x1064-jfbaqrzh.png;" vertex="1" parent="1">
          <mxGeometry x="443.29" y="415.74" width="42.88" height="22.26" as="geometry" />
        </mxCell>
        <mxCell id="xipW_wQAXYqAmelbau7Z-9" value="/counter" style="text;html=1;align=center;verticalAlign=middle;whiteSpace=wrap;rounded=0;fontSize=12;fillColor=default;fontColor=#4D4D4D;" parent="1" vertex="1">
          <mxGeometry x="292.5" y="398" width="50" height="22" as="geometry" />
        </mxCell>
        <mxCell id="WSlOZcIOhxCBMg01aReG-3" style="edgeStyle=orthogonalEdgeStyle;rounded=0;orthogonalLoop=1;jettySize=auto;html=1;exitX=0;exitY=0.25;exitDx=0;exitDy=0;entryX=0.25;entryY=1;entryDx=0;entryDy=0;" parent="1" source="VT1UUAzVHUPchzsrK04z-72" target="VT1UUAzVHUPchzsrK04z-1" edge="1">
          <mxGeometry relative="1" as="geometry">
            <Array as="points">
              <mxPoint x="215" y="452" />
              <mxPoint x="215" y="423" />
              <mxPoint x="353" y="423" />
              <mxPoint x="353" y="403" />
            </Array>
          </mxGeometry>
        </mxCell>
        <mxCell id="7i_CGMOZc0_IQQxQHQ9Y-19" value="" style="shape=image;verticalLabelPosition=bottom;labelBackgroundColor=default;verticalAlign=top;aspect=fixed;imageAspect=0;image=https://www.svgrepo.com/show/376344/python.svg;" vertex="1" parent="1">
          <mxGeometry x="689" y="365" width="72" height="72" as="geometry" />
        </mxCell>
        <mxCell id="7i_CGMOZc0_IQQxQHQ9Y-20" value="" style="shape=image;verticalLabelPosition=bottom;labelBackgroundColor=default;verticalAlign=top;aspect=fixed;imageAspect=0;image=https://www.svgrepo.com/show/376344/python.svg;" vertex="1" parent="1">
          <mxGeometry x="359" y="363" width="72" height="72" as="geometry" />
        </mxCell>
        <mxCell id="VT1UUAzVHUPchzsrK04z-11" value="" style="shape=image;verticalLabelPosition=bottom;labelBackgroundColor=default;verticalAlign=top;aspect=fixed;imageAspect=0;image=https://www.svgrepo.com/show/376344/python.svg;" parent="1" vertex="1">
          <mxGeometry x="77" y="250.5" width="72" height="72" as="geometry" />
        </mxCell>
        <mxCell id="7i_CGMOZc0_IQQxQHQ9Y-24" value="" style="endArrow=classic;html=1;rounded=0;strokeColor=#6C8EBF;" edge="1" parent="1">
          <mxGeometry width="50" height="50" relative="1" as="geometry">
            <mxPoint x="940" y="450" as="sourcePoint" />
            <mxPoint x="940" y="403" as="targetPoint" />
          </mxGeometry>
        </mxCell>
        <mxCell id="7i_CGMOZc0_IQQxQHQ9Y-25" value="" style="endArrow=none;html=1;rounded=0;exitX=1;exitY=0.5;exitDx=0;exitDy=0;strokeColor=#6C8EBF;" edge="1" parent="1" source="VT1UUAzVHUPchzsrK04z-41">
          <mxGeometry width="50" height="50" relative="1" as="geometry">
            <mxPoint x="900" y="360" as="sourcePoint" />
            <mxPoint x="1160" y="218" as="targetPoint" />
          </mxGeometry>
        </mxCell>
        <mxCell id="7i_CGMOZc0_IQQxQHQ9Y-27" value="messages.py" style="text;html=1;align=center;verticalAlign=middle;whiteSpace=wrap;rounded=0;fontStyle=0;fontSize=12;rotation=90;" vertex="1" parent="1">
          <mxGeometry x="614.09" y="344" width="90" height="30" as="geometry" />
        </mxCell>
        <mxCell id="7i_CGMOZc0_IQQxQHQ9Y-28" value="messages.py" style="text;html=1;align=center;verticalAlign=middle;whiteSpace=wrap;rounded=0;fontStyle=0;fontSize=12;rotation=90;" vertex="1" parent="1">
          <mxGeometry x="1032" y="204" width="90" height="30" as="geometry" />
        </mxCell>
        <mxCell id="7i_CGMOZc0_IQQxQHQ9Y-30" value="" style="endArrow=none;html=1;rounded=0;entryX=0.5;entryY=0;entryDx=0;entryDy=0;exitX=0.5;exitY=1;exitDx=0;exitDy=0;" edge="1" parent="1">
          <mxGeometry width="50" height="50" relative="1" as="geometry">
            <mxPoint x="674" y="403" as="sourcePoint" />
            <mxPoint x="674" y="313" as="targetPoint" />
          </mxGeometry>
        </mxCell>
        <mxCell id="7i_CGMOZc0_IQQxQHQ9Y-26" style="edgeStyle=orthogonalEdgeStyle;rounded=0;orthogonalLoop=1;jettySize=auto;html=1;exitX=0.25;exitY=0;exitDx=0;exitDy=0;strokeColor=#6C8EBF;entryX=1.003;entryY=0.366;entryDx=0;entryDy=0;entryPerimeter=0;" edge="1" parent="1" source="VT1UUAzVHUPchzsrK04z-62" target="VT1UUAzVHUPchzsrK04z-1">
          <mxGeometry relative="1" as="geometry">
            <mxPoint x="480" y="347" as="targetPoint" />
            <Array as="points">
              <mxPoint x="683" y="300" />
              <mxPoint x="590" y="300" />
              <mxPoint x="590" y="346" />
              <mxPoint x="482" y="346" />
            </Array>
          </mxGeometry>
        </mxCell>
        <mxCell id="VT1UUAzVHUPchzsrK04z-55" value="" style="rounded=1;whiteSpace=wrap;html=1;" parent="1" vertex="1">
          <mxGeometry x="850" y="313" width="120" height="90" as="geometry" />
        </mxCell>
        <mxCell id="VT1UUAzVHUPchzsrK04z-61" value="" style="shape=image;verticalLabelPosition=bottom;labelBackgroundColor=default;verticalAlign=top;aspect=fixed;imageAspect=0;image=https://www.svgrepo.com/show/376344/python.svg;" parent="1" vertex="1">
          <mxGeometry x="874" y="365" width="72" height="72" as="geometry" />
        </mxCell>
        <mxCell id="7i_CGMOZc0_IQQxQHQ9Y-6" value="avoidance.py" style="text;html=1;align=center;verticalAlign=middle;whiteSpace=wrap;rounded=0;fontStyle=0;fontSize=14;" vertex="1" parent="1">
          <mxGeometry x="867" y="343" width="90" height="30" as="geometry" />
        </mxCell>
        <mxCell id="7i_CGMOZc0_IQQxQHQ9Y-34" value="[MAVLink]" style="text;html=1;align=center;verticalAlign=middle;whiteSpace=wrap;rounded=0;fillColor=default;fontColor=#A3A3A3;" vertex="1" parent="1">
          <mxGeometry x="775" y="120" width="60" height="30" as="geometry" />
        </mxCell>
      </root>
    </mxGraphModel>
  </diagram>
</mxfile>
